<mxfile host="app.diagrams.net" agent="Mozilla/5.0 (Windows NT 10.0; Win64; x64) AppleWebKit/537.36 (KHTML, like Gecko) Chrome/138.0.0.0 Safari/537.36 Edg/138.0.0.0" version="28.0.4">
  <diagram name="Page-1" id="NwqAw14xY9WLK1lpd05I">
    <mxGraphModel dx="726" dy="590" grid="1" gridSize="10" guides="1" tooltips="1" connect="1" arrows="1" fold="1" page="1" pageScale="1" pageWidth="680" pageHeight="700" math="0" shadow="0">
      <root>
        <mxCell id="0" />
        <mxCell id="1" parent="0" />
        <mxCell id="XtAoHHLYlEtA0rZeBia_-5" value="" style="edgeStyle=orthogonalEdgeStyle;rounded=0;orthogonalLoop=1;jettySize=auto;html=1;" parent="1" source="XtAoHHLYlEtA0rZeBia_-1" target="XtAoHHLYlEtA0rZeBia_-4" edge="1">
          <mxGeometry relative="1" as="geometry" />
        </mxCell>
        <mxCell id="XtAoHHLYlEtA0rZeBia_-1" value="&lt;div&gt;&lt;b&gt;SINGLE&lt;/b&gt;&lt;/div&gt;ASCII(HxChar)" style="ellipse;whiteSpace=wrap;html=1;" parent="1" vertex="1">
          <mxGeometry x="130" y="70" width="120" height="80" as="geometry" />
        </mxCell>
        <mxCell id="XtAoHHLYlEtA0rZeBia_-2" value="&lt;font style=&quot;font-size: 36px;&quot;&gt;THx&lt;/font&gt;" style="text;html=1;align=center;verticalAlign=middle;resizable=0;points=[];autosize=1;strokeColor=none;fillColor=none;" parent="1" vertex="1">
          <mxGeometry x="25" y="10" width="90" height="60" as="geometry" />
        </mxCell>
        <mxCell id="B1nsUtOMuSDBbrPCCyjd-3" value="" style="edgeStyle=orthogonalEdgeStyle;rounded=0;orthogonalLoop=1;jettySize=auto;html=1;" parent="1" source="XtAoHHLYlEtA0rZeBia_-4" target="B1nsUtOMuSDBbrPCCyjd-2" edge="1">
          <mxGeometry relative="1" as="geometry" />
        </mxCell>
        <mxCell id="B1nsUtOMuSDBbrPCCyjd-10" value="" style="edgeStyle=orthogonalEdgeStyle;rounded=0;orthogonalLoop=1;jettySize=auto;html=1;" parent="1" source="XtAoHHLYlEtA0rZeBia_-4" target="B1nsUtOMuSDBbrPCCyjd-9" edge="1">
          <mxGeometry relative="1" as="geometry" />
        </mxCell>
        <mxCell id="XtAoHHLYlEtA0rZeBia_-4" value="&lt;font style=&quot;font-size: 9px;&quot;&gt;ASCII&lt;/font&gt;" style="whiteSpace=wrap;html=1;aspect=fixed;" parent="1" vertex="1">
          <mxGeometry x="150" y="220" width="80" height="80" as="geometry" />
        </mxCell>
        <mxCell id="XtAoHHLYlEtA0rZeBia_-9" value="" style="edgeStyle=orthogonalEdgeStyle;rounded=0;orthogonalLoop=1;jettySize=auto;html=1;" parent="1" source="XtAoHHLYlEtA0rZeBia_-6" edge="1">
          <mxGeometry relative="1" as="geometry">
            <mxPoint x="420" y="350" as="targetPoint" />
          </mxGeometry>
        </mxCell>
        <mxCell id="XtAoHHLYlEtA0rZeBia_-10" value="YES" style="edgeLabel;html=1;align=center;verticalAlign=middle;resizable=0;points=[];" parent="XtAoHHLYlEtA0rZeBia_-9" vertex="1" connectable="0">
          <mxGeometry x="-0.2441" y="2" relative="1" as="geometry">
            <mxPoint as="offset" />
          </mxGeometry>
        </mxCell>
        <mxCell id="XtAoHHLYlEtA0rZeBia_-16" value="" style="edgeStyle=orthogonalEdgeStyle;rounded=0;orthogonalLoop=1;jettySize=auto;html=1;" parent="1" source="XtAoHHLYlEtA0rZeBia_-6" edge="1">
          <mxGeometry relative="1" as="geometry">
            <mxPoint x="515" y="259.9999999999999" as="targetPoint" />
          </mxGeometry>
        </mxCell>
        <mxCell id="XtAoHHLYlEtA0rZeBia_-17" value="NO" style="edgeLabel;html=1;align=center;verticalAlign=middle;resizable=0;points=[];" parent="XtAoHHLYlEtA0rZeBia_-16" vertex="1" connectable="0">
          <mxGeometry x="-0.348" y="5" relative="1" as="geometry">
            <mxPoint as="offset" />
          </mxGeometry>
        </mxCell>
        <mxCell id="XtAoHHLYlEtA0rZeBia_-6" value="IS&amp;nbsp;â‰¥ &#39;A&#39;" style="rhombus;whiteSpace=wrap;html=1;" parent="1" vertex="1">
          <mxGeometry x="380" y="220" width="80" height="80" as="geometry" />
        </mxCell>
        <mxCell id="XtAoHHLYlEtA0rZeBia_-19" value="" style="edgeStyle=orthogonalEdgeStyle;rounded=0;orthogonalLoop=1;jettySize=auto;html=1;" parent="1" target="XtAoHHLYlEtA0rZeBia_-18" edge="1">
          <mxGeometry relative="1" as="geometry">
            <mxPoint x="460" y="390" as="sourcePoint" />
          </mxGeometry>
        </mxCell>
        <mxCell id="XtAoHHLYlEtA0rZeBia_-20" value="" style="edgeStyle=orthogonalEdgeStyle;rounded=0;orthogonalLoop=1;jettySize=auto;html=1;" parent="1" target="XtAoHHLYlEtA0rZeBia_-18" edge="1">
          <mxGeometry relative="1" as="geometry">
            <mxPoint x="555" y="299.9999999999999" as="sourcePoint" />
          </mxGeometry>
        </mxCell>
        <mxCell id="XtAoHHLYlEtA0rZeBia_-18" value="STOSB" style="shape=cylinder3;whiteSpace=wrap;html=1;boundedLbl=1;backgroundOutline=1;size=15;" parent="1" vertex="1">
          <mxGeometry x="525" y="350" width="60" height="80" as="geometry" />
        </mxCell>
        <mxCell id="XtAoHHLYlEtA0rZeBia_-29" value="RETURN TO CALLER" style="ellipse;whiteSpace=wrap;html=1;" parent="1" vertex="1">
          <mxGeometry x="130" y="490" width="120" height="80" as="geometry" />
        </mxCell>
        <mxCell id="XtAoHHLYlEtA0rZeBia_-30" value="SUB &#39;0&#39;" style="whiteSpace=wrap;html=1;aspect=fixed;" parent="1" vertex="1">
          <mxGeometry x="515" y="220" width="80" height="80" as="geometry" />
        </mxCell>
        <mxCell id="XtAoHHLYlEtA0rZeBia_-31" value="SUB 0x31" style="whiteSpace=wrap;html=1;aspect=fixed;" parent="1" vertex="1">
          <mxGeometry x="380" y="350" width="80" height="80" as="geometry" />
        </mxCell>
        <mxCell id="B1nsUtOMuSDBbrPCCyjd-7" value="" style="edgeStyle=orthogonalEdgeStyle;rounded=0;orthogonalLoop=1;jettySize=auto;html=1;" parent="1" source="B1nsUtOMuSDBbrPCCyjd-2" target="XtAoHHLYlEtA0rZeBia_-29" edge="1">
          <mxGeometry relative="1" as="geometry" />
        </mxCell>
        <mxCell id="B1nsUtOMuSDBbrPCCyjd-8" value="YES" style="edgeLabel;html=1;align=center;verticalAlign=middle;resizable=0;points=[];" parent="B1nsUtOMuSDBbrPCCyjd-7" vertex="1" connectable="0">
          <mxGeometry x="-0.1747" y="-1" relative="1" as="geometry">
            <mxPoint as="offset" />
          </mxGeometry>
        </mxCell>
        <mxCell id="k0AVKumuVMATNp2eTePm-2" style="edgeStyle=orthogonalEdgeStyle;rounded=0;orthogonalLoop=1;jettySize=auto;html=1;entryX=0;entryY=0.5;entryDx=0;entryDy=0;" edge="1" parent="1" source="B1nsUtOMuSDBbrPCCyjd-2" target="XtAoHHLYlEtA0rZeBia_-4">
          <mxGeometry relative="1" as="geometry">
            <Array as="points">
              <mxPoint x="80" y="390" />
              <mxPoint x="80" y="260" />
            </Array>
          </mxGeometry>
        </mxCell>
        <mxCell id="k0AVKumuVMATNp2eTePm-4" value="NO" style="edgeLabel;html=1;align=center;verticalAlign=middle;resizable=0;points=[];" vertex="1" connectable="0" parent="k0AVKumuVMATNp2eTePm-2">
          <mxGeometry x="-0.7767" y="-1" relative="1" as="geometry">
            <mxPoint as="offset" />
          </mxGeometry>
        </mxCell>
        <mxCell id="B1nsUtOMuSDBbrPCCyjd-2" value="is count 0" style="rhombus;whiteSpace=wrap;html=1;" parent="1" vertex="1">
          <mxGeometry x="150" y="350" width="80" height="80" as="geometry" />
        </mxCell>
        <mxCell id="B1nsUtOMuSDBbrPCCyjd-11" value="" style="edgeStyle=orthogonalEdgeStyle;rounded=0;orthogonalLoop=1;jettySize=auto;html=1;" parent="1" source="B1nsUtOMuSDBbrPCCyjd-9" target="XtAoHHLYlEtA0rZeBia_-6" edge="1">
          <mxGeometry relative="1" as="geometry" />
        </mxCell>
        <mxCell id="B1nsUtOMuSDBbrPCCyjd-9" value="LODSB" style="shape=cylinder3;whiteSpace=wrap;html=1;boundedLbl=1;backgroundOutline=1;size=15;" parent="1" vertex="1">
          <mxGeometry x="280" y="220" width="60" height="80" as="geometry" />
        </mxCell>
      </root>
    </mxGraphModel>
  </diagram>
</mxfile>
